<svg width="15" height="19" viewBox="0 0 15 19" fill="none" xmlns="http://www.w3.org/2000/svg">
<path d="M6.16042 17.0253C6.14895 17.5774 6.58724 18.0387 7.13938 18.0557C7.69151 18.0728 8.14841 17.639 8.15989 17.087L7.16016 17.0562L6.16042 17.0253ZM8.21557 0.314998C7.83326 -0.0874009 7.20027 -0.106923 6.80173 0.271394L0.307219 6.43644C-0.0913163 6.81476 -0.104474 7.44765 0.277831 7.85005C0.660136 8.25245 1.29313 8.27197 1.69167 7.89365L7.46457 2.41362L13.0024 8.24248C13.3847 8.64488 14.0177 8.6644 14.4162 8.28608C14.8147 7.90776 14.8279 7.27487 14.4456 6.87247L8.21557 0.314998ZM7.16016 17.0562L8.15989 17.087L8.49369 1.03084L7.49396 1L6.49422 0.96917L6.16042 17.0253L7.16016 17.0562Z" fill="white"/>
</svg>
