<svg width="18" height="15" viewBox="0 0 18 15" fill="none" xmlns="http://www.w3.org/2000/svg">
<path d="M16.986 8.36323C17.5383 8.36323 17.9905 7.91554 17.9961 7.36328C18.0016 6.81102 17.5584 6.36333 17.0061 6.36333L16.9961 7.36328L16.986 8.36323ZM0.298542 6.65621C-0.0959081 7.04671 -0.102273 7.67985 0.284325 8.07035L6.58431 14.434C6.97091 14.8245 7.60407 14.8245 7.99852 14.434C8.39297 14.0435 8.39934 13.4104 8.01274 13.0198L2.41275 7.36328L8.12647 1.70671C8.52092 1.31621 8.52729 0.683075 8.14069 0.29257C7.75409 -0.0979346 7.12093 -0.0979347 6.72648 0.29257L0.298542 6.65621ZM16.9961 7.36328L17.0061 6.36333L1.00859 6.36333L0.99854 7.36328L0.988487 8.36323L16.986 8.36323L16.9961 7.36328Z" fill="white"/>
</svg>
