<svg width="19" height="15" viewBox="0 0 19 15" fill="none" xmlns="http://www.w3.org/2000/svg">
<path d="M1.01008 6.36315C0.457793 6.36314 0.0055666 6.81082 2.07845e-06 7.36307C-0.00556244 7.91533 0.437642 8.36303 0.989926 8.36305L1 7.3631L1.01008 6.36315ZM17.7623 8.07055C18.1567 7.68006 18.1631 7.04692 17.7765 6.65641L11.4767 0.292625C11.0901 -0.0978885 10.4569 -0.0979028 10.0625 0.292593C9.66801 0.683088 9.66163 1.31622 10.0482 1.70673L15.6481 7.36343L9.93423 13.0199C9.53977 13.4104 9.53339 14.0435 9.91998 14.434C10.3066 14.8245 10.9397 14.8245 11.3342 14.434L17.7623 8.07055ZM1 7.3631L0.989926 8.36305L17.0522 8.36341L17.0623 7.36347L17.0724 6.36352L1.01008 6.36315L1 7.3631Z" fill="white"/>
</svg>
