<svg width="112" height="16" viewBox="0 0 112 16" fill="none" xmlns="http://www.w3.org/2000/svg">
<path d="M104 0C108.418 0 112 3.58172 112 8C112 12.4183 108.418 16 104 16C101.769 16 99.751 15.0864 98.3002 13.6128C96.5424 11.8272 94.4731 9.9409 91.9675 9.95129C89.4879 9.96157 87.449 11.8273 85.7138 13.5986C84.262 15.0805 82.2386 16 80 16C77.8144 16 75.8336 15.1235 74.3897 13.7028C72.588 11.9299 70.494 10.0395 67.9662 10.0499C65.465 10.0602 63.4018 11.9296 61.6235 13.6886C60.1789 15.1176 58.1928 16 56 16C53.8616 16 51.9198 15.1608 50.4852 13.7939C48.6378 12.0337 46.5177 10.1381 43.9661 10.1486C41.4413 10.1589 39.3523 12.0333 37.5289 13.7797C36.0931 15.155 34.1457 16 32 16C29.9085 16 28.0049 15.1972 26.58 13.8831C24.6869 12.1372 22.5406 10.2367 19.9653 10.2472C17.4174 10.2575 15.3025 12.1366 13.4342 13.869C12.008 15.1915 10.0989 16 8 16C3.58172 16 0 12.4183 0 8C0 3.58172 3.58172 0 8 0C10.3211 0 12.4104 0.988692 13.871 2.56782C15.5443 4.37694 17.5668 6.25728 20.0311 6.24695C22.4702 6.23673 24.463 4.37659 26.115 2.58216C27.5765 0.99466 29.6718 0 32 0C34.2766 0 36.3301 0.951145 37.7862 2.47764C39.5012 4.27551 41.5466 6.15868 44.0312 6.14832C46.4903 6.13807 48.5059 4.27522 50.199 2.49194C51.6564 0.957058 53.7162 0 56 0C58.2316 0 60.2491 0.913952 61.6995 2.38789C63.4569 4.17375 65.5259 6.06007 68.0314 6.04969C70.511 6.03941 72.5499 4.17354 74.285 2.40215C75.737 0.919807 77.761 0 80 0C82.1859 0 84.1665 0.876808 85.61 2.29785C87.4113 4.07108 89.505 5.96147 92.0326 5.95106C94.5339 5.94075 96.5971 4.07117 98.3752 2.31205C99.8201 0.882643 101.807 0 104 0Z" fill="#F2B0CC"/>
</svg>
