<svg width="64" height="16" viewBox="0 0 64 16" fill="none" xmlns="http://www.w3.org/2000/svg">
<path d="M56 0C60.4183 0 64 3.58172 64 8C64 12.4183 60.4183 16 56 16C53.8616 16 51.9198 15.1608 50.4852 13.7939C48.6378 12.0337 46.5177 10.1381 43.9661 10.1486C41.4413 10.1589 39.3523 12.0333 37.5289 13.7797C36.0931 15.155 34.1457 16 32 16C29.9085 16 28.0049 15.1972 26.58 13.8831C24.6869 12.1372 22.5406 10.2367 19.9653 10.2472C17.4174 10.2575 15.3025 12.1366 13.4342 13.869C12.008 15.1915 10.0989 16 8 16C3.58172 16 0 12.4183 0 8C0 3.58172 3.58172 0 8 0C10.3211 0 12.4104 0.988692 13.871 2.56782C15.5443 4.37694 17.5668 6.25728 20.0311 6.24695C22.4702 6.23673 24.463 4.37659 26.115 2.58216C27.5765 0.99466 29.6718 0 32 0C34.2763 0 36.3297 0.950912 37.7859 2.47709C39.5011 4.27476 41.5464 6.15791 44.031 6.14784C46.4907 6.13787 48.5069 4.27461 50.2007 2.49098C51.6577 0.956681 53.7168 0 56 0Z" fill="#F2B0CC"/>
</svg>
