<svg width="160" height="16" viewBox="0 0 160 16" fill="none" xmlns="http://www.w3.org/2000/svg">
<path d="M152 0C156.418 0 160 3.58172 160 8C160 12.4183 156.418 16 152 16C149.679 16 147.589 15.0113 146.128 13.4322C144.455 11.6232 142.432 9.74272 139.968 9.75305C137.529 9.76327 135.536 11.6233 133.884 13.4178C132.423 15.0053 130.328 16 128 16C125.724 16 123.67 15.049 122.213 13.5227C120.498 11.7249 118.452 9.84132 115.967 9.85168C113.508 9.86193 111.492 11.7249 109.799 13.5085C108.342 15.0431 106.283 16 104 16C101.768 16 99.7504 15.0861 98.2997 13.6121C96.5422 11.8264 94.4731 9.93993 91.9675 9.95031C89.488 9.96059 87.4492 11.8264 85.7143 13.5979C84.2625 15.0802 82.2389 16 80 16C77.8144 16 75.8336 15.1235 74.3897 13.7028C72.588 11.9299 70.494 10.0395 67.9662 10.0499C65.465 10.0602 63.4018 11.9296 61.6235 13.6886C60.1789 15.1176 58.1928 16 56 16C53.8616 16 51.9198 15.1608 50.4852 13.7939C48.6378 12.0337 46.5177 10.1381 43.9661 10.1486C41.4413 10.1589 39.3523 12.0333 37.5289 13.7797C36.0931 15.155 34.1457 16 32 16C29.9085 16 28.0049 15.1972 26.58 13.8831C24.6869 12.1372 22.5406 10.2367 19.9653 10.2472C17.4174 10.2575 15.3025 12.1366 13.4342 13.869C12.008 15.1915 10.0989 16 8 16C3.58172 16 0 12.4183 0 8C0 3.58172 3.58172 0 8 0C10.3211 0 12.4104 0.988692 13.871 2.56782C15.5443 4.37694 17.5668 6.25728 20.0311 6.24695C22.4702 6.23673 24.463 4.37659 26.115 2.58216C27.5765 0.99466 29.6718 0 32 0C34.2763 0 36.3297 0.950912 37.7859 2.47709C39.5011 4.27476 41.5464 6.15791 44.031 6.14784C46.4907 6.13787 48.5069 4.27461 50.2007 2.49098C51.6577 0.956681 53.7168 0 56 0C58.2316 0 60.2491 0.913886 61.6996 2.38775C63.4568 4.17329 65.5254 6.0593 68.0306 6.04921C70.5106 6.03921 72.55 4.1731 74.2855 2.40161C75.7375 0.919581 77.7613 0 80 0C82.1856 0 84.166 0.876522 85.6095 2.29716C87.4111 4.07019 89.5049 5.96049 92.0326 5.95008C94.534 5.93977 96.5973 4.07028 98.3757 2.31137C99.8206 0.882356 101.807 0 104 0C106.139 0 108.081 0.839347 109.515 2.20651C111.362 3.96655 113.482 5.86189 116.033 5.85145C118.558 5.84111 120.647 3.96686 122.47 2.22067C123.906 0.845147 125.854 0 128 0C130.092 0 131.995 0.802927 133.42 2.11727C135.312 3.86316 137.458 5.76329 140.033 5.75281C142.581 5.74245 144.696 3.86349 146.564 2.13139C147.991 0.808647 149.901 0 152 0Z" fill="#F2B0CC"/>
</svg>
