<svg width="328" height="16" viewBox="0 0 328 16" fill="none" xmlns="http://www.w3.org/2000/svg">
<path d="M320 0C324.418 0 328 3.58172 328 8C328 12.4183 324.418 16 320 16C317.382 16 315.058 14.742 313.599 12.7975C312.194 10.9243 310.313 9.05132 307.971 9.06114C305.652 9.07088 303.799 10.925 302.411 12.7833C300.953 14.7359 298.625 16 296 16C293.422 16 291.129 14.7805 289.666 12.887C288.226 11.0224 286.328 9.15068 283.972 9.16026C281.638 9.16975 279.767 11.0231 278.344 12.8732C276.882 14.7746 274.584 16 272 16C269.463 16 267.202 14.8191 265.736 12.977C264.259 11.121 262.343 9.24929 259.971 9.25889C257.622 9.26841 255.732 11.1215 254.273 12.9633C252.809 14.8132 250.543 16 248 16C245.506 16 243.279 14.8584 241.812 13.0692C240.297 11.2212 238.36 9.3481 235.97 9.35802C233.604 9.36784 231.695 11.2217 230.199 13.0552C228.733 14.8524 226.501 16 224 16C221.548 16 219.354 14.8968 217.887 13.1598C216.334 11.3208 214.377 9.4467 211.97 9.45665C209.587 9.46651 207.658 11.3213 206.124 13.1458C204.657 14.8909 202.458 16 200 16C197.59 16 195.43 14.9347 193.963 13.2493C192.372 11.4203 190.394 9.54531 187.97 9.55529C185.569 9.56517 183.62 11.4207 182.049 13.2353C180.582 14.9287 178.416 16 176 16C173.634 16 171.507 14.9727 170.042 13.3398C168.411 11.5209 166.412 9.64391 163.968 9.65392C161.549 9.66383 159.579 11.5211 157.968 13.3259C156.504 14.9668 154.373 16 152 16C149.679 16 147.589 15.0113 146.128 13.4322C144.455 11.6232 142.432 9.74272 139.968 9.75305C137.529 9.76327 135.536 11.6233 133.884 13.4178C132.423 15.0053 130.328 16 128 16C125.724 16 123.67 15.049 122.213 13.5227C120.498 11.7249 118.452 9.84132 115.967 9.85168C113.508 9.86193 111.492 11.7249 109.799 13.5085C108.342 15.0431 106.283 16 104 16C101.768 16 99.7504 15.0861 98.2997 13.6121C96.5422 11.8264 94.4731 9.93993 91.9675 9.95031C89.488 9.96059 87.4492 11.8264 85.7143 13.5979C84.2625 15.0802 82.2389 16 80 16C77.8144 16 75.8336 15.1235 74.3897 13.7028C72.588 11.9299 70.494 10.0395 67.9662 10.0499C65.465 10.0602 63.4018 11.9296 61.6235 13.6886C60.1789 15.1176 58.1928 16 56 16C53.8616 16 51.9198 15.1608 50.4852 13.7939C48.6378 12.0337 46.5177 10.1381 43.9661 10.1486C41.4413 10.1589 39.3523 12.0333 37.5289 13.7797C36.0931 15.155 34.1457 16 32 16C29.9085 16 28.0049 15.1972 26.58 13.8831C24.6869 12.1372 22.5406 10.2367 19.9653 10.2472C17.4174 10.2575 15.3025 12.1366 13.4342 13.869C12.008 15.1915 10.0989 16 8 16C3.58172 16 0 12.4183 0 8C0 3.58172 3.58172 0 8 0C10.3211 0 12.4104 0.988692 13.871 2.56782C15.5443 4.37694 17.5668 6.25728 20.0311 6.24695C22.4702 6.23673 24.463 4.37659 26.115 2.58216C27.5765 0.99466 29.6718 0 32 0C34.2763 0 36.3297 0.950912 37.7859 2.47709C39.5011 4.27476 41.5464 6.15791 44.031 6.14784C46.4907 6.13787 48.5069 4.27461 50.2007 2.49098C51.6577 0.956681 53.7168 0 56 0C58.2316 0 60.2491 0.913886 61.6996 2.38775C63.4568 4.17329 65.5254 6.0593 68.0306 6.04921C70.5106 6.03921 72.55 4.1731 74.2855 2.40161C75.7375 0.919581 77.7613 0 80 0C82.1856 0 84.166 0.876522 85.6095 2.29716C87.4111 4.07019 89.5049 5.96049 92.0326 5.95008C94.534 5.93977 96.5973 4.07028 98.3757 2.31137C99.8206 0.882356 101.807 0 104 0C106.139 0 108.081 0.839347 109.515 2.20651C111.362 3.96655 113.482 5.86189 116.033 5.85145C118.558 5.84111 120.647 3.96686 122.47 2.22067C123.906 0.845147 125.854 0 128 0C130.092 0 131.995 0.802927 133.42 2.11727C135.312 3.86316 137.458 5.76329 140.033 5.75281C142.581 5.74245 144.696 3.86349 146.564 2.13139C147.991 0.808647 149.901 0 152 0C154.044 0 155.909 0.766882 157.323 2.02858C159.262 3.75919 161.435 5.66448 164.034 5.65369C166.605 5.64301 168.746 3.75963 170.66 2.04304C172.076 0.77269 173.948 0 176 0C177.996 0 179.821 0.730937 181.222 1.93967C183.209 3.6543 185.41 5.56588 188.035 5.55505C190.631 5.54435 192.8 3.65511 194.761 1.95406C196.165 0.736723 197.996 0 200 0C201.946 0 203.729 0.695107 205.116 1.85049C207.153 3.54844 209.384 5.46727 212.036 5.45642C214.659 5.44569 216.857 3.54957 218.867 1.86484C220.256 0.700855 222.046 0 224 0C225.896 0 227.638 0.66005 229.009 1.76287C231.096 3.4426 233.358 5.36847 236.037 5.35729C238.686 5.34624 240.913 3.44391 242.972 1.77753C244.346 0.665875 246.095 0 248 0C249.847 0 251.547 0.625757 252.9 1.67674C255.038 3.33687 257.33 5.26986 260.037 5.25866C262.713 5.24758 264.97 3.3384 267.08 1.69132C268.437 0.63151 270.145 0 272 0C273.795 0 275.451 0.591266 276.785 1.58957C278.977 3.22933 281.302 5.17126 284.039 5.16003C286.744 5.14892 289.033 3.23133 291.195 1.60408C292.533 0.596988 294.196 0 296 0C297.742 0 299.354 0.557263 300.667 1.50316C302.913 3.12115 305.272 5.07246 308.04 5.0609C310.775 5.04947 313.097 3.12345 315.312 1.51796C316.629 0.563053 318.248 0 320 0Z" fill="#F2B0CC"/>
</svg>
